{"title":"Zero Hour Mashup 2013 - Best Of Bollywood - DJ Kiran Kamath - HD","uid":9406692,"size":146388653,"categoryP":"video","categoryS":"music_videos","magnet":"?xt=urn:btih:e801216875fcfb9c03d27ce465fc03b8753e59fc&amp;dn=Zero+Hour+Mashup+2013+-+Best+Of+Bollywood+-+DJ+Kiran+Kamath+-+HD&amp;tr=udp%3A%2F%2Ftracker.openbittorrent.com%3A80&amp;tr=udp%3A%2F%2Fopen.demonii.com%3A1337&amp;tr=udp%3A%2F%2Ftracker.coppersurfer.tk%3A6969&amp;tr=udp%3A%2F%2Fexodus.desync.com%3A6969","seeders":5,"leechers":1,"uploader":"Palash995","files":1,"time":1388175978,"description":"[center][b][size=200][color=red]Without Any reason..Don't Dislike the torrent.....please check and give your feedback[/color][/size]\n\n[img]http://i843.photobucket.com/albums/zz358/0Krish0/qiWyCf1pvj_zps682a8ccb.png[/img]\n\n[size=100][color=red]Zero Hour Mashup 2013 - Best Of Bollywood - DJ Kiran Kamath - HD 1080p[/color][/size]\n\n\nLet The Party Begin!! We bring to you the most rocking mashup of 2013 &quot;ZERO HOUR MASHUP 2013&quot; created by Kiran Kamath.\n\nMashup By: Kiran Kamath\nVideo Edited By: Prakhar Risodkar\n\nScreenshots:-\n\n\n\n\n\nMedia Info:-\n\nGeneral\nComplete name                            : Zero Hour Mashup 2013 - Best Of Bollywood - DJ Kiran Kamath - HD 1080p {DAKU RG} {GreatPalash}.mp4\nFormat                                   : MPEG-4\nFormat profile                           : Base Media\nCodec ID                                 : isom\nFile size                                : 140 MiB\nDuration                                 : 4mn 40s\nOverall bit rate mode                    : Variable\nOverall bit rate                         : 4 169 Kbps\nWriting application                      : Lavf53.31.100\n\nVideo\nID                                       : 1\nFormat                                   : AVC\nFormat/Info                              : Advanced Video Codec\nFormat profile                           : &lt;a class=&quot;__cf_email__&quot; href=&quot;/cdn-cgi/l/email-protection&quot; data-cfemail=&quot;d69ebfb1be969ae2f8e7&quot;&gt;[email&amp;#160;protected]&lt;/a&gt;&lt;script cf-hash='f9e31' type=&quot;text/javascript&quot;&gt;\n/* &lt;![CDATA[ */!function(){try{var t=&quot;currentScript&quot;in document?document.currentScript:function(){for(var t=document.getElementsByTagName(&quot;script&quot;),e=t.length;e--;)if(t[e].getAttribute(&quot;cf-hash&quot;))return t[e]}();if(t&amp;&amp;t.previousSibling){var e,r,n,i,c=t.previousSibling,a=c.getAttribute(&quot;data-cfemail&quot;);if(a){for(e=&quot;&quot;,r=parseInt(a.substr(0,2),16),n=2;a.length-n;n+=2)i=parseInt(a.substr(n,2),16)^r,e+=String.fromCharCode(i);e=document.createTextNode(e),c.parentNode.replaceChild(e,c)}}}catch(u){}}();/* ]]&gt; */&lt;/script&gt;\nFormat settings, CABAC                   : Yes\nFormat settings, ReFrames                : 3 frames\nCodec ID                                 : avc1\nCodec ID/Info                            : Advanced Video Coding\nDuration                                 : 4mn 40s\nBit rate mode                            : Variable\nBit rate                                 : 4 038 Kbps\nMaximum bit rate                         : 19.2 Mbps\nWidth                                    : 1 920 pixels\nHeight                                   : 1 080 pixels\nDisplay aspect ratio                     : 16:9\nFrame rate mode                          : Constant\nFrame rate                               : 25.000 fps\nStandard                                 : PAL\nColor space                              : YUV\nChroma subsampling                       : 4:2:0\nBit depth                                : 8 bits\nScan type                                : Progressive\nBits/(Pixel*Frame)                       : 0.078\nStream size                              : 135 MiB (97%)\n\nAudio\nID                                       : 2\nFormat                                   : AAC\nFormat/Info                              : Advanced Audio Codec\nFormat profile                           : LC\nCodec ID                                 : 40\nDuration                                 : 4mn 40s\nBit rate mode                            : Constant\nBit rate                                 : 126 Kbps\nChannel(s)                               : 2 channels\nChannel positions                        : Front: L R\nSampling rate                            : 44.1 KHz\nCompression mode                         : Lossy\nStream size                              : 4.20 MiB (3%)\n\n[IMG]http://imageshack.us/a/img89/4822/zka.gif[/IMG]\n\n[IMG]http://imageshack.us/a/img200/185/tj8.gif[/IMG]\n\n[IMG]http://imageshack.us/a/img593/9603/ua8.gif[/IMG]\n\n[IMG]http://imageshack.us/a/img707/5608/ysmp.png[/IMG][/b][/center]","torrent":{"xt":"urn:btih:e801216875fcfb9c03d27ce465fc03b8753e59fc","amp;dn":"Zero+Hour+Mashup+2013+-+Best+Of+Bollywood+-+DJ+Kiran+Kamath+-+HD","amp;tr":["udp%3A%2F%2Ftracker.openbittorrent.com%3A80","udp%3A%2F%2Fopen.demonii.com%3A1337","udp%3A%2F%2Ftracker.coppersurfer.tk%3A6969","udp%3A%2F%2Fexodus.desync.com%3A6969"],"infoHash":"e801216875fcfb9c03d27ce465fc03b8753e59fc","infoHashBuffer":{"type":"Buffer","data":[232,1,33,104,117,252,251,156,3,210,124,228,101,252,3,184,117,62,89,252]},"announce":[],"urlList":[]}}